<?xml version="1.0" encoding="UTF-8"?>
<svg version="1.1" xmlns="http://www.w3.org/2000/svg" width="341" height="380">
<path d="M0 0 C112.53 0 225.06 0 341 0 C341 125.4 341 250.8 341 380 C228.47 380 115.94 380 0 380 C0 254.6 0 129.2 0 0 Z " fill="#110010" transform="translate(0,0)"/>
<path d="M0 0 C0 5.94 0 11.88 0 18 C1.27875 18.103125 2.5575 18.20625 3.875 18.3125 C17.29364532 19.9428027 27.55591572 26.11042372 36.0625 36.625 C39.75692376 41.8174115 43 46.52284747 43 53 C43.58265625 53.01675781 44.1653125 53.03351563 44.765625 53.05078125 C50.97089262 53.70448083 54.84236001 56.00260595 59.375 60.1875 C59.87418945 60.64487549 60.37337891 61.10225098 60.88769531 61.57348633 C67.44071592 67.93981434 70.0814291 74.57844181 70.3125 83.6875 C70.26695669 91.06551548 68.06329018 96.90506473 64 103 C64.40595214 107.65815681 64.40595214 107.65815681 66 112 C66.67052559 120.37607379 66.58162858 126.84120535 62 134 C61.34 134 60.68 134 60 134 C59.6596875 135.1446875 59.6596875 135.1446875 59.3125 136.3125 C57.71903821 139.5753027 56.23661664 140.46260709 53 142 C52.34 142 51.68 142 51 142 C51 143.65 51 145.3 51 147 C50.38125 147.0825 49.7625 147.165 49.125 147.25 C48.42375 147.4975 47.7225 147.745 47 148 C46.731875 148.61875 46.46375 149.2375 46.1875 149.875 C44.69938181 152.53794833 42.95487142 153.43701145 40.15234375 154.5390625 C36.07930163 155.41132923 32.06500982 154.67886482 28 154 C27.62875 155.3303125 27.62875 155.3303125 27.25 156.6875 C25.46169739 161.42650192 23.20065497 164.19956335 19 167 C12.67741935 167.4516129 12.67741935 167.4516129 9 165 C11.15068853 170.94541299 13.36899665 176.79276987 16.1484375 182.47265625 C16.51582031 183.22426025 16.88320312 183.97586426 17.26171875 184.75024414 C17.99435036 186.23077052 18.73887396 187.70548125 19.49609375 189.17358398 C21.02460483 192.26293444 22.02349806 194.30093263 21.90625 197.7890625 C18.21834414 206.7862811 6.59869385 212.57726589 -1.8125 216.3125 C-14.37769802 220.93760449 -29.99262374 222.04736175 -42.81640625 218.046875 C-46.79755999 216.13820022 -49.42403983 214.25284387 -51.29296875 210.1875 C-51.58816406 209.135625 -51.88335937 208.08375 -52.1875 207 C-52.49042969 205.96875 -52.79335937 204.9375 -53.10546875 203.875 C-55.68850201 192.68561576 -56.25660395 182.16974613 -56.125 170.75 C-56.11494089 169.21484965 -56.10582027 167.67969285 -56.09765625 166.14453125 C-56.07589619 162.42955073 -56.04153134 158.71481839 -56 155 C-56.66 155.33 -57.32 155.66 -58 156 C-61.8068112 156.35913313 -64.25435268 156.38149398 -67.6875 154.625 C-71.86305871 149.8851766 -74 144.29635595 -74 138 C-74.85271484 138.08701172 -74.85271484 138.08701172 -75.72265625 138.17578125 C-81.02851875 138.4858066 -84.33413745 137.97102824 -88.48828125 134.5625 C-91.0717408 131.89225757 -92.50617432 129.42335051 -94 126 C-93.75 123.5625 -93.75 123.5625 -93 122 C-90.69 122 -88.38 122 -86 122 C-85.67 122.66 -85.34 123.32 -85 124 C-82.41394668 124.4683265 -82.41394668 124.4683265 -79.4375 124.625 C-78.42558594 124.69976562 -77.41367188 124.77453125 -76.37109375 124.8515625 C-75.19740234 124.92503906 -75.19740234 124.92503906 -74 125 C-74 121.7 -74 118.4 -74 115 C-72.35 115 -70.7 115 -69 115 C-68.89042969 115.60328125 -68.78085938 116.2065625 -68.66796875 116.828125 C-68.50941406 117.62734375 -68.35085937 118.4265625 -68.1875 119.25 C-68.03667969 120.03890625 -67.88585937 120.8278125 -67.73046875 121.640625 C-67.15186065 124.06292823 -67.15186065 124.06292823 -65.46484375 125.7890625 C-63.31453556 129.03459433 -63.46953499 132.35035274 -63.375 136.125 C-63.40295944 141.2181158 -63.40295944 141.2181158 -62 146 C-59.2198076 144.98059612 -58.17185783 144.30279713 -56.6875 141.6875 C-55.85548652 138.43508366 -55.82372278 137.16124502 -57 134 C-57.91267265 132.77280632 -58.8538574 131.56662916 -59.8125 130.375 C-62.42061891 127.12564146 -63.67932285 124.29630324 -64.875 120.3125 C-66.55117486 115.21384258 -68.36283571 113.58288021 -73.03515625 111.1640625 C-77.44091298 108.55389251 -79.48023543 104.31178677 -81.3125 99.6875 C-82.81141777 91.64785015 -82.32204806 85.47460814 -79 78 C-78.34 78 -77.68 78 -77 78 C-76.731875 77.401875 -76.46375 76.80375 -76.1875 76.1875 C-75.00082594 74.00152146 -73.90400887 72.58667406 -72 71 C-71.34 71 -70.68 71 -70 71 C-70.12375 69.7625 -70.2475 68.525 -70.375 67.25 C-70.40571654 60.82000397 -67.51593944 55.26963185 -64 50 C-62.515 49.505 -62.515 49.505 -61 49 C-60.67 48.01 -60.34 47.02 -60 46 C-55.5476214 42.52820478 -50.92713926 39.92709132 -45.3125 39.125 C-40.53845994 38.2918342 -38.85439154 35.94620835 -35.953125 32.23828125 C-31.07775947 26.65111235 -25.25057046 22.45011409 -18 21 C-18 14.73 -18 8.46 -18 2 C-5.625 0 -5.625 0 0 0 Z " fill="#6625D0" transform="translate(189,66)"/>
<path d="M0 0 C4.60408189 1.69417664 7.42822711 3.67742057 11 7 C11 7.66 11 8.32 11 9 C8.03 9.66 5.06 10.32 2 11 C1.67 12.32 1.34 13.64 1 15 C5.455 14.505 5.455 14.505 10 14 C10 14.66 10 15.32 10 16 C8.68 16.33 7.36 16.66 6 17 C6.495 19.475 6.495 19.475 7 22 C7.66 20.68 8.32 19.36 9 18 C9.66 18 10.32 18 11 18 C11.495 16.515 11.495 16.515 12 15 C12.99 15.495 12.99 15.495 14 16 C14.495 17.485 14.495 17.485 15 19 C15.99 17.515 15.99 17.515 17 16 C17.66 16 18.32 16 19 16 C19.33 15.01 19.66 14.02 20 13 C25.14335286 11.70148093 30.24304395 11.9451393 35.49804688 12.0390625 C40.43146941 12.09215763 45.11499993 11.70653108 50 11 C49.81300537 11.60996826 49.62601074 12.21993652 49.43334961 12.84838867 C48.5895266 15.62464288 47.76338535 18.40585955 46.9375 21.1875 C46.64294922 22.14720703 46.34839844 23.10691406 46.04492188 24.09570312 C45.77099609 25.02705078 45.49707031 25.95839844 45.21484375 26.91796875 C44.95823975 27.77156982 44.70163574 28.6251709 44.43725586 29.50463867 C43.94391494 32.32007003 44.2220562 34.26455324 45 37 C45.33 37.33 45.66 37.66 46 38 C46.23788858 41.3077841 46.39540297 44.60824645 46.51757812 47.921875 C46.71485144 51.97156114 46.99034308 55.43030432 49 59 C50.485 59.495 50.485 59.495 52 60 C53.62488112 55.01703123 54.30642606 50.47295539 54.55859375 45.234375 C55.08749724 42.5570936 55.88288047 41.66976749 58 40 C58.66 39.731875 59.32 39.46375 60 39.1875 C62.31818099 38.05797887 62.31818099 38.05797887 63.5 34.9375 C65 32 65 32 67.125 31.0625 C67.74375 31.041875 68.3625 31.02125 69 31 C69.33 31.33 69.66 31.66 70 32 C69.62206515 35.90532683 69.23947487 39.2815754 68 43 C72.17665175 44.27373068 76.11902021 43.98646471 80.44140625 43.83984375 C83 44 83 44 86 46 C86 47.32 86 48.64 86 50 C85.01 50 84.02 50 83 50 C82.814375 50.598125 82.62875 51.19625 82.4375 51.8125 C80.32016425 55.03453266 77.66163116 56.21583943 74 57 C70.61192309 56.95068301 67.33955488 56.55771238 64 56 C63.62875 57.3303125 63.62875 57.3303125 63.25 58.6875 C61.46169739 63.42650192 59.20065497 66.19956335 55 69 C48.67741935 69.4516129 48.67741935 69.4516129 45 67 C47.15068853 72.94541299 49.36899665 78.79276987 52.1484375 84.47265625 C52.69951172 85.60006226 52.69951172 85.60006226 53.26171875 86.75024414 C53.99435036 88.23077052 54.73887396 89.70548125 55.49609375 91.17358398 C57.02460483 94.26293444 58.02349806 96.30093263 57.90625 99.7890625 C54.21834414 108.7862811 42.59869385 114.57726589 34.1875 118.3125 C21.62230198 122.93760449 6.00737626 124.04736175 -6.81640625 120.046875 C-10.79755999 118.13820022 -13.42403983 116.25284387 -15.29296875 112.1875 C-15.58816406 111.135625 -15.88335937 110.08375 -16.1875 109 C-16.49042969 107.96875 -16.79335937 106.9375 -17.10546875 105.875 C-19.68850201 94.68561576 -20.25660395 84.16974613 -20.125 72.75 C-20.11494089 71.21484965 -20.10582027 69.67969285 -20.09765625 68.14453125 C-20.07589619 64.42955073 -20.04153134 60.71481839 -20 57 C-20.99 57.495 -20.99 57.495 -22 58 C-25.8068112 58.35913313 -28.25435268 58.38149398 -31.6875 56.625 C-35.86305871 51.8851766 -38 46.29635595 -38 40 C-38.56847656 40.05800781 -39.13695313 40.11601562 -39.72265625 40.17578125 C-45.02851875 40.4858066 -48.33413745 39.97102824 -52.48828125 36.5625 C-55.0717408 33.89225757 -56.50617432 31.42335051 -58 28 C-57.75 25.5625 -57.75 25.5625 -57 24 C-54.69 24 -52.38 24 -50 24 C-49.67 24.66 -49.34 25.32 -49 26 C-46.41394668 26.4683265 -46.41394668 26.4683265 -43.4375 26.625 C-42.42558594 26.69976562 -41.41367188 26.77453125 -40.37109375 26.8515625 C-39.19740234 26.92503906 -39.19740234 26.92503906 -38 27 C-38 23.7 -38 20.4 -38 17 C-36.35 17 -34.7 17 -33 17 C-32.89042969 17.60328125 -32.78085938 18.2065625 -32.66796875 18.828125 C-32.43013672 20.02695313 -32.43013672 20.02695313 -32.1875 21.25 C-32.03667969 22.03890625 -31.88585937 22.8278125 -31.73046875 23.640625 C-31.15186065 26.06292823 -31.15186065 26.06292823 -29.46484375 27.7890625 C-27.31453556 31.03459433 -27.46953499 34.35035274 -27.375 38.125 C-27.40295944 43.2181158 -27.40295944 43.2181158 -26 48 C-23.35008872 46.99867653 -22.21338239 46.3929972 -20.83984375 43.86328125 C-20.54207031 43.02152344 -20.24429688 42.17976563 -19.9375 41.3125 C-19.61136719 40.42433594 -19.28523438 39.53617188 -18.94921875 38.62109375 C-18.63597656 37.75613281 -18.32273438 36.89117187 -18 36 C-17.42812343 34.62019568 -16.846467 33.24435382 -16.25 31.875 C-15.63125 30.451875 -15.63125 30.451875 -15 29 C-14.01 29 -13.02 29 -12 29 C-11.88011719 28.28972656 -11.76023438 27.57945312 -11.63671875 26.84765625 C-9.52781541 17.41581249 -4.40098803 8.52974999 0 0 Z " fill="#AF7EFB" transform="translate(153,164)"/>
<path d="M0 0 C4.60408189 1.69417664 7.42822711 3.67742057 11 7 C11 7.66 11 8.32 11 9 C8.03 9.66 5.06 10.32 2 11 C1.67 12.32 1.34 13.64 1 15 C5.455 14.505 5.455 14.505 10 14 C10 14.66 10 15.32 10 16 C8.68 16.33 7.36 16.66 6 17 C6.33 18.65 6.66 20.3 7 22 C7.66 20.68 8.32 19.36 9 18 C9.66 18 10.32 18 11 18 C11.33 17.01 11.66 16.02 12 15 C12.66 15.33 13.32 15.66 14 16 C14.33 16.99 14.66 17.98 15 19 C15.66 18.01 16.32 17.02 17 16 C17.66 16 18.32 16 19 16 C19.33 15.01 19.66 14.02 20 13 C25.14335286 11.70148093 30.24304395 11.9451393 35.49804688 12.0390625 C40.43146941 12.09215763 45.11499993 11.70653108 50 11 C49.81300537 11.60996826 49.62601074 12.21993652 49.43334961 12.84838867 C48.5895266 15.62464288 47.76338535 18.40585955 46.9375 21.1875 C46.64294922 22.14720703 46.34839844 23.10691406 46.04492188 24.09570312 C45.77099609 25.02705078 45.49707031 25.95839844 45.21484375 26.91796875 C44.95823975 27.77156982 44.70163574 28.6251709 44.43725586 29.50463867 C43.94391494 32.32007003 44.2220562 34.26455324 45 37 C45.33 37.33 45.66 37.66 46 38 C46.23788858 41.3077841 46.39540297 44.60824645 46.51757812 47.921875 C46.71485144 51.97156114 46.99034308 55.43030432 49 59 C50.485 59.495 50.485 59.495 52 60 C53.62488112 55.01703123 54.30642606 50.47295539 54.55859375 45.234375 C55.08749724 42.5570936 55.88288047 41.66976749 58 40 C58.66 39.731875 59.32 39.46375 60 39.1875 C62.31818099 38.05797887 62.31818099 38.05797887 63.5 34.9375 C65 32 65 32 67.125 31.0625 C67.74375 31.041875 68.3625 31.02125 69 31 C69.33 31.33 69.66 31.66 70 32 C69.62206515 35.90532683 69.23947487 39.2815754 68 43 C72.17665175 44.27373068 76.11902021 43.98646471 80.44140625 43.83984375 C83 44 83 44 86 46 C86 47.32 86 48.64 86 50 C85.01 50 84.02 50 83 50 C82.7215625 50.8971875 82.7215625 50.8971875 82.4375 51.8125 C80.32016425 55.03453266 77.66163116 56.21583943 74 57 C70.61192309 56.95068301 67.33955488 56.55771238 64 56 C63.62875 57.3303125 63.62875 57.3303125 63.25 58.6875 C61.46169739 63.42650192 59.20065497 66.19956335 55 69 C48.67741935 69.4516129 48.67741935 69.4516129 45 67 C45 67.99 45 68.98 45 70 C44.34 70 43.68 70 43 70 C42.67 70.66 42.34 71.32 42 72 C39.24331998 68.04476345 38.4682121 64.77576339 38 60 C34.37 60 30.74 60 27 60 C25.63047327 57.26094655 25.87378639 55.02912668 26 52 C26.495 51.01 26.495 51.01 27 50 C26.484375 50.185625 25.96875 50.37125 25.4375 50.5625 C22.02834791 51.17439909 19.35624673 50.80798532 16 50 C14.5625 47.9375 14.5625 47.9375 14 46 C15.485 46.495 15.485 46.495 17 47 C21.99942891 47.37032807 24.97242055 47.0799137 29 44 C30.22691067 41.54617866 30.20175931 39.80015897 30.25 37.0625 C30.28867188 35.74958984 30.28867188 35.74958984 30.328125 34.41015625 C30.18304204 31.97490126 30.18304204 31.97490126 28.76171875 30.22265625 C26.60263377 28.72422255 25.17199771 28.54221908 22.5625 28.375 C17.94477399 28.04683673 14.9148787 27.60991913 11 25 C7.9830912 24.65938127 5.90592185 24.42787893 3 25 C-0.64345196 27.94576967 -2.79099354 30.11894185 -3.3125 34.8125 C-2.91994386 38.81657264 -1.98637535 40.32797995 1 43 C4.0850745 43.5838196 4.0850745 43.5838196 7 43 C7.66 42.34 8.32 41.68 9 41 C8.01 40.34 7.02 39.68 6 39 C5.625 35.5 5.625 35.5 6 32 C6.99 31.34 7.98 30.68 9 30 C9.33 29.34 9.66 28.68 10 28 C10.99 28.66 11.98 29.32 13 30 C13 31.32 13 32.64 13 34 C13.66 34 14.32 34 15 34 C15 33.34 15 32.68 15 32 C15.99 31.67 16.98 31.34 18 31 C20.1875 32.125 20.1875 32.125 22 34 C22.25 36.6875 22.25 36.6875 22 39 C19.08517222 39.80967438 17.53886783 40.21845993 14.6875 39.0625 C14.130625 38.711875 13.57375 38.36125 13 38 C13.7763932 41.0745356 13.7763932 41.0745356 16 43 C15.01 43 14.02 43 13 43 C13 43.99 13 44.98 13 46 C9.57192418 48.10958512 6.99176419 48.55884699 3 48 C-0.65443056 45.42040196 -3.51784046 42.72323931 -6 39 C-7.485 39.495 -7.485 39.495 -9 40 C-9.061875 39.4225 -9.12375 38.845 -9.1875 38.25 C-10.31009662 35.14127091 -12.4538474 34.02386489 -15 32 C-15 31.01 -15 30.02 -15 29 C-14.01 29 -13.02 29 -12 29 C-11.88011719 28.28972656 -11.76023438 27.57945312 -11.63671875 26.84765625 C-9.52781541 17.41581249 -4.40098803 8.52974999 0 0 Z " fill="#AF7CFB" transform="translate(153,164)"/>
<path d="M0 0 C4.60408189 1.69417664 7.42822711 3.67742057 11 7 C11 7.66 11 8.32 11 9 C8.03 9.66 5.06 10.32 2 11 C1.67 12.32 1.34 13.64 1 15 C5.455 14.505 5.455 14.505 10 14 C10 14.66 10 15.32 10 16 C8.68 16.33 7.36 16.66 6 17 C6.33 18.65 6.66 20.3 7 22 C13.21649019 23.71489384 18.65453286 24.95245143 25 23 C25 21.02 25 19.04 25 17 C26.32 17 27.64 17 29 17 C29.495 18.485 29.495 18.485 30 20 C32.50447516 21.21869929 32.50447516 21.21869929 35 22 C34.625 24.4375 34.625 24.4375 34 27 C33.01 27.495 33.01 27.495 32 28 C32.165 28.495 32.33 28.99 32.5 29.5 C33.76760138 35.83800688 33.41977668 40.66777525 30.26171875 46.296875 C28.20238134 49.07666173 26.28707514 50.03321319 23 51 C19.25 50.9375 19.25 50.9375 16 50 C14.5625 47.9375 14.5625 47.9375 14 46 C15.485 46.495 15.485 46.495 17 47 C21.99942891 47.37032807 24.97242055 47.0799137 29 44 C30.22691067 41.54617866 30.20175931 39.80015897 30.25 37.0625 C30.28867188 35.74958984 30.28867188 35.74958984 30.328125 34.41015625 C30.18304204 31.97490126 30.18304204 31.97490126 28.76171875 30.22265625 C26.60263377 28.72422255 25.17199771 28.54221908 22.5625 28.375 C17.94477399 28.04683673 14.9148787 27.60991913 11 25 C7.9830912 24.65938127 5.90592185 24.42787893 3 25 C-0.64345196 27.94576967 -2.79099354 30.11894185 -3.3125 34.8125 C-2.91994386 38.81657264 -1.98637535 40.32797995 1 43 C4.0850745 43.5838196 4.0850745 43.5838196 7 43 C7.66 42.34 8.32 41.68 9 41 C8.01 40.34 7.02 39.68 6 39 C5.625 35.5 5.625 35.5 6 32 C6.99 31.34 7.98 30.68 9 30 C9.33 29.34 9.66 28.68 10 28 C10.99 28.66 11.98 29.32 13 30 C13 31.32 13 32.64 13 34 C13.66 34 14.32 34 15 34 C15 33.34 15 32.68 15 32 C15.99 31.67 16.98 31.34 18 31 C20.1875 32.125 20.1875 32.125 22 34 C22.25 36.6875 22.25 36.6875 22 39 C19.08517222 39.80967438 17.53886783 40.21845993 14.6875 39.0625 C14.130625 38.711875 13.57375 38.36125 13 38 C13.7763932 41.0745356 13.7763932 41.0745356 16 43 C15.01 43 14.02 43 13 43 C13 43.99 13 44.98 13 46 C9.57192418 48.10958512 6.99176419 48.55884699 3 48 C-0.65443056 45.42040196 -3.51784046 42.72323931 -6 39 C-7.485 39.495 -7.485 39.495 -9 40 C-9.061875 39.4225 -9.12375 38.845 -9.1875 38.25 C-10.31009662 35.14127091 -12.4538474 34.02386489 -15 32 C-15 31.01 -15 30.02 -15 29 C-14.01 29 -13.02 29 -12 29 C-11.88011719 28.28972656 -11.76023438 27.57945312 -11.63671875 26.84765625 C-9.52781541 17.41581249 -4.40098803 8.52974999 0 0 Z " fill="#AE7BFA" transform="translate(153,164)"/>
<path d="M0 0 C1.65 0 3.3 0 5 0 C5.10957031 0.60328125 5.21914062 1.2065625 5.33203125 1.828125 C5.49058594 2.62734375 5.64914063 3.4265625 5.8125 4.25 C5.96332031 5.03890625 6.11414063 5.8278125 6.26953125 6.640625 C6.84813935 9.06292823 6.84813935 9.06292823 8.53515625 10.7890625 C10.68546444 14.03459433 10.53046501 17.35035274 10.625 21.125 C10.59704056 26.2181158 10.59704056 26.2181158 12 31 C15.36591866 29.55746343 17.51047079 27.66735273 20 25 C19.34 28.3 18.68 31.6 18 35 C17.34 35 16.68 35 16 35 C16 35.66 16 36.32 16 37 C16.99 37 17.98 37 19 37 C19 38.98 19 40.96 19 43 C18.67 42.01 18.34 41.02 18 40 C17.01 40.495 17.01 40.495 16 41 C12.1931888 41.35913313 9.74564732 41.38149398 6.3125 39.625 C2.13694129 34.8851766 0 29.29635595 0 23 C-0.56847656 23.05800781 -1.13695313 23.11601562 -1.72265625 23.17578125 C-7.02851875 23.4858066 -10.33413745 22.97102824 -14.48828125 19.5625 C-17.0717408 16.89225757 -18.50617432 14.42335051 -20 11 C-19.75 8.5625 -19.75 8.5625 -19 7 C-16.69 7 -14.38 7 -12 7 C-11.67 7.66 -11.34 8.32 -11 9 C-8.41394668 9.4683265 -8.41394668 9.4683265 -5.4375 9.625 C-4.42558594 9.69976562 -3.41367188 9.77453125 -2.37109375 9.8515625 C-1.19740234 9.92503906 -1.19740234 9.92503906 0 10 C0 6.7 0 3.4 0 0 Z " fill="#AD7DF7" transform="translate(115,181)"/>
<path d="M0 0 C2.0625 0.4375 2.0625 0.4375 4 1 C3.125 8.625 3.125 8.625 2 12 C6.17665175 13.27373068 10.11902021 12.98646471 14.44140625 12.83984375 C17 13 17 13 20 15 C20 16.32 20 17.64 20 19 C19.01 19 18.02 19 17 19 C16.7215625 19.8971875 16.7215625 19.8971875 16.4375 20.8125 C14.32016425 24.03453266 11.66163116 25.21583943 8 26 C4.61192309 25.95068301 1.33955488 25.55771238 -2 25 C-2.2475 25.886875 -2.495 26.77375 -2.75 27.6875 C-4.53830261 32.42650192 -6.79934503 35.19956335 -11 38 C-17.32258065 38.4516129 -17.32258065 38.4516129 -21 36 C-21 36.99 -21 37.98 -21 39 C-21.66 39 -22.32 39 -23 39 C-23.33 39.66 -23.66 40.32 -24 41 C-27.9747443 34.95147606 -28.11933087 30.04052137 -28 23 C-26 25 -26 25 -25.0625 28.5 C-24.3326766 32.23685745 -24.3326766 32.23685745 -21 34 C-19.28555111 34.43738696 -17.55332216 34.80848688 -15.8125 35.125 C-14.91144531 35.29257813 -14.01039063 35.46015625 -13.08203125 35.6328125 C-12.05142578 35.81457031 -12.05142578 35.81457031 -11 36 C-11.2165625 34.948125 -11.2165625 34.948125 -11.4375 33.875 C-11.623125 32.92625 -11.80875 31.9775 -12 31 C-12.20109375 30.04480469 -12.4021875 29.08960938 -12.609375 28.10546875 C-13.04540392 24.63903883 -12.77880773 21.76176861 -12.25 18.3125 C-12.09015625 17.19488281 -11.9303125 16.07726562 -11.765625 14.92578125 C-10.98168292 11.93000258 -10.43928144 10.82330128 -8 9 C-7.01 8.5978125 -7.01 8.5978125 -6 8.1875 C-3.08118543 6.45445385 -2.35517754 4.03301641 -1 1 C-0.67 0.67 -0.34 0.34 0 0 Z " fill="#AD7CF7" transform="translate(219,195)"/>
<path d="M0 0 C0.34615385 24.61538462 0.34615385 24.61538462 -2 34 C-6.62 34 -11.24 34 -16 34 C-16.96948757 30.12204974 -17.33436441 26.46496842 -17.5625 22.5 C-17.6049585 21.79746094 -17.64741699 21.09492187 -17.69116211 20.37109375 C-18.03650376 14.2452748 -18.10457208 8.13489555 -18 2 C-15.93827387 1.66191314 -13.8755797 1.32972639 -11.8125 1 C-10.66394531 0.814375 -9.51539063 0.62875 -8.33203125 0.4375 C-5.49584607 0.06510523 -2.85280436 -0.08596021 0 0 Z " fill="#E061A4" transform="translate(189,66)"/>
<path d="M0 0 C0.33 1.32 0.66 2.64 1 4 C2.918125 4.1546875 2.918125 4.1546875 4.875 4.3125 C12.75842165 5.20636828 19.65622844 7.15870065 26 12 C22.98968256 12.93423645 22.13349732 13.04449911 19 12 C19 11.01 19 10.02 19 9 C14.00632136 8.2717552 9.00890086 7.61512818 4 7 C4 7.99 4 8.98 4 10 C5.32 10.33 6.64 10.66 8 11 C6.35 11.33 4.7 11.66 3 12 C2.95101562 12.69867188 2.90203125 13.39734375 2.8515625 14.1171875 C2.77679688 15.02726562 2.70203125 15.93734375 2.625 16.875 C2.55539063 17.77992187 2.48578125 18.68484375 2.4140625 19.6171875 C2 22 2 22 0 24 C0.495 24.66 0.99 25.32 1.5 26 C3.54454831 30.08909662 3.43397023 32.44331263 3 37 C1.95703125 39.23046875 1.95703125 39.23046875 0 41 C-2.71229503 41.29642569 -4.99739732 41.38061189 -7.6875 41.25 C-8.38939453 41.23195312 -9.09128906 41.21390625 -9.81445312 41.1953125 C-11.54355436 41.14826213 -13.27195205 41.07651873 -15 41 C-17.43881474 36.70768605 -17.73861443 32.84993812 -17 28 C-15.1875 25.4375 -15.1875 25.4375 -13 24 C-12.01 24 -11.02 24 -10 24 C-10 23.34 -10 22.68 -10 22 C-11.134375 21.855625 -12.26875 21.71125 -13.4375 21.5625 C-17 21 -17 21 -18 20 C-18.07205511 18.31391034 -18.08386068 16.62499341 -18.0625 14.9375 C-18.05347656 14.01839844 -18.04445312 13.09929687 -18.03515625 12.15234375 C-18.02355469 11.44207031 -18.01195312 10.73179688 -18 10 C-17.34 9.67 -16.68 9.34 -16 9 C-15.67 12.63 -15.34 16.26 -15 20 C-10.38 20 -5.76 20 -1 20 C-0.67 13.4 -0.34 6.8 0 0 Z " fill="#6C27BA" transform="translate(188,80)"/>
<path d="M0 0 C0.9590625 0.7425 0.9590625 0.7425 1.9375 1.5 C4.44066636 3.32048462 5.4067675 3.11963418 8.4375 3 C12.50619752 2.85277739 14.71781491 3.41403599 18 6 C20.47035712 8.47035712 20.35042281 9.3960007 20.4375 12.8125 C20.37356879 16.83435433 20.19581297 17.74750432 17.625 21.0625 C13.52146733 24.09129793 11.13978058 24.44308453 6 24 C3.5625 22.1875 3.5625 22.1875 2 20 C2 18 2 16 2 14 C4.97 14.33 7.94 14.66 11 15 C10.34 13.02 9.68 11.04 9 9 C6.525 8.505 6.525 8.505 4 8 C4 8.66 4 9.32 4 10 C3.34 10 2.68 10 2 10 C2 8.68 2 7.36 2 6 C-1.18490007 5.7226499 -1.18490007 5.7226499 -4 8 C-4.73606499 11.56769552 -4.73606499 11.56769552 -5 15 C-3.68 15.66 -2.36 16.32 -1 17 C-2.82926467 19.43901956 -3.83299968 19.96732602 -6.875 20.5625 C-10 20 -10 20 -12.875 17.375 C-15.21063803 13.66545725 -15.80008816 12.26713683 -15 8 C-11.27728154 1.32478069 -7.70406399 -1.08930413 0 0 Z " fill="#F9F2FA" transform="translate(164,188)"/>
<path d="M0 0 C1.65 0 3.3 0 5 0 C5.10957031 0.59167969 5.21914062 1.18335938 5.33203125 1.79296875 C6.25914403 6.41345763 7.22351335 10.0876779 10 14 C7.61966018 15.19016991 5.77381329 15.27992056 3.125 15.5 C-0.02424684 15.76322063 -2.95344549 16.14979874 -6 17 C-6 16.01 -6 15.02 -6 14 C-6.99 14.33 -7.98 14.66 -9 15 C-11.6875 14.0625 -11.6875 14.0625 -14 13 C-14.66 14.32 -15.32 15.64 -16 17 C-20.06153846 11.58461538 -20.06153846 11.58461538 -19.75 8.625 C-19.5025 8.08875 -19.255 7.5525 -19 7 C-16.69 7 -14.38 7 -12 7 C-11.67 7.66 -11.34 8.32 -11 9 C-8.41394668 9.4683265 -8.41394668 9.4683265 -5.4375 9.625 C-4.42558594 9.69976562 -3.41367188 9.77453125 -2.37109375 9.8515625 C-1.19740234 9.92503906 -1.19740234 9.92503906 0 10 C0 6.7 0 3.4 0 0 Z " fill="#A57AF3" transform="translate(115,181)"/>
<path d="M0 0 C2.875 1.5625 2.875 1.5625 5 4 C5.6269883 7.90126052 5.57975697 10.01693383 3.5625 13.4375 C-0.23964277 15.75587974 -3.66240478 15.77201236 -8 15 C-10.5625 13.4375 -10.5625 13.4375 -12 11 C-12.625 7.5 -12.625 7.5 -12 4 C-8.21276329 0.4832802 -5.13428924 -0.87392157 0 0 Z " fill="#E261A9" transform="translate(184,105)"/>
<path d="M0 0 C1.32 0 2.64 0 4 0 C4.33 0.99 4.66 1.98 5 3 C7.50447516 4.21869929 7.50447516 4.21869929 10 5 C9.625 7.4375 9.625 7.4375 9 10 C8.01 10.495 8.01 10.495 7 11 C7.2475 11.7425 7.2475 11.7425 7.5 12.5 C8.76760138 18.83800688 8.41977668 23.66777525 5.26171875 29.296875 C3.20238134 32.07666173 1.28707514 33.03321319 -2 34 C-5.75 33.9375 -5.75 33.9375 -9 33 C-10.4375 30.9375 -10.4375 30.9375 -11 29 C-10.01 29.33 -9.02 29.66 -8 30 C-3.00057109 30.37032807 -0.02757945 30.0799137 4 27 C5.22691067 24.54617866 5.20175931 22.80015897 5.25 20.0625 C5.27578125 19.18722656 5.3015625 18.31195313 5.328125 17.41015625 C5.1817707 14.97502621 5.1817707 14.97502621 3.765625 13.21484375 C1.57305051 11.70623608 0.14264184 11.60570567 -2.5 11.5 C-6.60958904 11.33561644 -6.60958904 11.33561644 -8.78125 9.46875 C-9.1834375 8.9840625 -9.585625 8.499375 -10 8 C-9.0925 7.855625 -8.185 7.71125 -7.25 7.5625 C-4.78523044 7.13590527 -2.41152893 6.64925779 0 6 C0 4.02 0 2.04 0 0 Z " fill="#AF86EE" transform="translate(178,181)"/>
<path d="M0 0 C2.75 0.8125 2.75 0.8125 6 3 C7.18273039 5.64453199 7.99727961 8.31864507 8.8515625 11.0859375 C10.09133927 14.23176562 11.60386158 16.20962933 13.8125 18.75 C16.97768265 22.55365297 16.97768265 22.55365297 17.1875 26.75 C15.93821196 30.1691041 14.48237394 32.35747291 12 35 C11.01 34.67 10.02 34.34 9 34 C7.20200352 30.40400703 7.67022473 25.93075903 7.5703125 21.94140625 C7.37702415 17.56825731 6.79014741 15.31918834 4 12 C3.48828125 9.640625 3.48828125 9.640625 3.3125 7.25 C3.24675781 6.45078125 3.18101563 5.6515625 3.11328125 4.828125 C3.07589844 4.22484375 3.03851563 3.6215625 3 3 C1.68 2.67 0.36 2.34 -1 2 C-0.67 1.34 -0.34 0.68 0 0 Z " fill="#1A052D" transform="translate(117,178)"/>
<path d="M0 0 C1.32 0.66 2.64 1.32 4 2 C4 3.32 4 4.64 4 6 C4.66 6 5.32 6 6 6 C6 5.34 6 4.68 6 4 C6.99 3.67 7.98 3.34 9 3 C11.1875 4.125 11.1875 4.125 13 6 C13.25 8.6875 13.25 8.6875 13 11 C10.08517222 11.80967438 8.53886783 12.21845993 5.6875 11.0625 C5.130625 10.711875 4.57375 10.36125 4 10 C4.7763932 13.0745356 4.7763932 13.0745356 7 15 C-1.42857143 17.28571429 -1.42857143 17.28571429 -6 17 C-5.38125 16.71125 -4.7625 16.4225 -4.125 16.125 C-1.86674235 15.06279958 -1.86674235 15.06279958 0 13 C-0.99 12.34 -1.98 11.68 -3 11 C-3.375 7.5 -3.375 7.5 -3 4 C-2.01 3.34 -1.02 2.68 0 2 C0 1.34 0 0.68 0 0 Z " fill="#F2E9FB" transform="translate(162,192)"/>
<path d="M0 0 C0.33 0 0.66 0 1 0 C1.04898437 0.98742187 1.09796875 1.97484375 1.1484375 2.9921875 C1.22320312 4.27351562 1.29796875 5.55484375 1.375 6.875 C1.44460938 8.15117187 1.51421875 9.42734375 1.5859375 10.7421875 C1.67241106 14.08061699 1.67241106 14.08061699 4 16 C3.21625 16.4125 2.4325 16.825 1.625 17.25 C-1.11507772 19.07671848 -1.73335347 20.07696955 -3 23 C-3.66 23.33 -4.32 23.66 -5 24 C-4.7834375 24.59425781 -4.566875 25.18851563 -4.34375 25.80078125 C-1.29687234 34.87088466 -0.6536888 43.91715532 -4 53 C-6.625 55.5 -6.625 55.5 -9 57 C-9.66 56.67 -10.32 56.34 -11 56 C-10.566875 55.649375 -10.13375 55.29875 -9.6875 54.9375 C-4.45879983 48.93417758 -4.67432515 42.86596296 -4.69921875 35.20703125 C-4.98357896 32.17508665 -5.4944892 30.57752822 -7 28 C-7.6904145 23.74244392 -6.20950744 21.34829671 -4.01953125 17.7421875 C-0.7849604 12.21491317 -0.46880683 6.24253311 0 0 Z " fill="#18002D" transform="translate(259,146)"/>
<path d="M0 0 C0.99 0.33 1.98 0.66 3 1 C3 3.64 3 6.28 3 9 C2.34 9 1.68 9 1 9 C0.67 9.66 0.34 10.32 0 11 C-0.66 11 -1.32 11 -2 11 C-2.33 12.32 -2.66 13.64 -3 15 C-0.69 15 1.62 15 4 15 C4 15.33 4 15.66 4 16 C0.04 16 -3.92 16 -8 16 C-7.01 15.01 -6.02 14.02 -5 13 C-5 12.01 -5 11.02 -5 10 C-3.68 9.67 -2.36 9.34 -1 9 C-1 8.34 -1 7.68 -1 7 C-3.97 7.66 -6.94 8.32 -10 9 C-10.33 7.68 -10.66 6.36 -11 5 C-8.28817788 2.39665076 -7.10866187 2.00543309 -3.25 1.8125 C-2.1775 1.874375 -1.105 1.93625 0 2 C0 1.34 0 0.68 0 0 Z " fill="#A97BF3" transform="translate(164,171)"/>
<path d="M0 0 C0.763125 0.639375 1.52625 1.27875 2.3125 1.9375 C4.88246713 4.14232781 4.88246713 4.14232781 8 5 C8 7.64 8 10.28 8 13 C4.7 13 1.4 13 -2 13 C-3.36952673 10.26094655 -3.12621361 8.02912668 -3 5 C-2.67 4.34 -2.34 3.68 -2 3 C-1.34 3 -0.68 3 0 3 C0 2.01 0 1.02 0 0 Z " fill="#C980FC" transform="translate(182,211)"/>
<path d="M0 0 C1.56041016 -0.04253906 1.56041016 -0.04253906 3.15234375 -0.0859375 C6.69261638 0.47480367 7.82851837 1.65115734 10.0625 4.375 C7.0625 4.375 7.0625 4.375 4.0625 2.375 C1.0455912 2.03438127 -1.03157815 1.80287893 -3.9375 2.375 C-7.58095196 5.32076967 -9.72849354 7.49394185 -10.25 12.1875 C-9.85395896 16.22711856 -8.94908942 17.67229155 -5.9375 20.375 C-1.63581156 21.46997524 1.78562288 21.54142103 6.0625 20.375 C6.0625 21.365 6.0625 22.355 6.0625 23.375 C2.63442418 25.48458512 0.05426419 25.93384699 -3.9375 25.375 C-7.49727185 22.91054257 -10.7182087 20.64251956 -11.9375 16.375 C-12.39203431 10.7387745 -12.07919008 7.26207346 -8.9375 2.375 C-5.51828453 0.09552302 -4.03439823 0.04986895 0 0 Z " fill="#AB87E4" transform="translate(159.9375,186.625)"/>
<path d="M0 0 C-0.27714844 0.61746094 -0.55429688 1.23492187 -0.83984375 1.87109375 C-2.71738594 6.26093438 -4.17298169 10.01254502 -4.375 14.8125 C-4.55175725 17.3777462 -4.67134276 18.60014994 -6.31640625 20.6015625 C-7.9375 21.9375 -7.9375 21.9375 -11 24 C-11.66 24.66 -12.32 25.32 -13 26 C-13 24.35 -13 22.7 -13 21 C-11.68 20.67 -10.36 20.34 -9 20 C-8.1276588 17.00519083 -7.89170234 14.36424089 -7.9375 11.25 C-7.94652344 10.45078125 -7.95554687 9.6515625 -7.96484375 8.828125 C-7.97644531 8.22484375 -7.98804687 7.6215625 -8 7 C-8.66 6.67 -9.32 6.34 -10 6 C-9.6875 4.125 -9.6875 4.125 -9 2 C-5.5647952 -0.29013653 -4.014669 -0.17842973 0 0 Z " fill="#13001A" transform="translate(124,118)"/>
<path d="M0 0 C1.32 0.33 2.64 0.66 4 1 C3.01 1 2.02 1 1 1 C0.9071875 2.5778125 0.9071875 2.5778125 0.8125 4.1875 C-0.14386185 8.67504405 -1.56858857 10.07074634 -5 13 C-5.66 13.66 -6.32 14.32 -7 15 C-10.625 15.125 -10.625 15.125 -14 15 C-13.690625 16.11375 -13.690625 16.11375 -13.375 17.25 C-12.94845991 20.37796068 -13.50299325 21.32595741 -15 24 C-15.67305018 22.39850114 -16.33822227 20.79368971 -17 19.1875 C-17.37125 18.29417969 -17.7425 17.40085938 -18.125 16.48046875 C-19 14 -19 14 -19 11 C-18.01 11.33 -17.02 11.66 -16 12 C-12.10382851 12.36075662 -9.76222841 12.42542981 -6.3125 10.5 C-3.37207489 7.32116204 -1.71442732 3.94605618 0 0 Z " fill="#200833" transform="translate(217,220)"/>
<path d="M0 0 C0.66 0.33 1.32 0.66 2 1 C2 1.99 2 2.98 2 4 C1.01 4 0.02 4 -1 4 C-0.67 5.65 -0.34 7.3 0 9 C1.65 9.33 3.3 9.66 5 10 C5.3403125 11.1446875 5.3403125 11.1446875 5.6875 12.3125 C7.18619826 16.52312843 9.04851413 20.48287779 10.9765625 24.51171875 C12 27 12 27 12 30 C11.34 30 10.68 30 10 30 C9.62875 28.88625 9.2575 27.7725 8.875 26.625 C5.21383812 17.03139989 0.01673648 10.37775925 -8 4 C-6 3 -6 3 -2 3 C-1.34 2.01 -0.68 1.02 0 0 Z " fill="#17022E" transform="translate(222,89)"/>
<path d="M0 0 C1.3008304 2.50159692 2.2550045 4.79334732 3.125 7.5 C5.59697525 12.1143538 8.18387959 13.30370272 13 15 C15.66064928 15.79051549 18.28188759 16.41754734 21 17 C21 17.33 21 17.66 21 18 C14.63060749 18.10273214 8.30497742 18.01329994 2 17 C0.46576447 15.46576447 0.69730526 13.87807812 0.5 11.75 C0.24084591 9.12083999 -0.07416925 6.65140451 -0.625 4.0625 C-1 2 -1 2 0 0 Z " fill="#180327" transform="translate(136,269)"/>
<path d="M0 0 C2.625 -0.1875 2.625 -0.1875 5 0 C3.7625 0.7734375 3.7625 0.7734375 2.5 1.5625 C-0.34840923 3.84227122 -0.34840923 3.84227122 -0.5 7.5625 C-0.27926746 10.86489863 -0.27926746 10.86489863 1.17578125 12.703125 C3.73593054 14.52318831 5.58369116 14.29704619 8.6875 14.1875 C10.17830078 14.14689453 10.17830078 14.14689453 11.69921875 14.10546875 C12.45847656 14.07066406 13.21773437 14.03585938 14 14 C15.1845131 10.44646071 15.26641894 7.72986522 15 4 C13.64570159 2.05630262 13.64570159 2.05630262 12 1 C14.4375 1.375 14.4375 1.375 17 2 C18.56516118 5.13032236 18.540337 8.59073084 18 12 C16.96484375 14.2421875 16.96484375 14.2421875 15 16 C12.28770497 16.29642569 10.00260268 16.38061189 7.3125 16.25 C6.2596582 16.22292969 6.2596582 16.22292969 5.18554688 16.1953125 C3.45644564 16.14826213 1.72804795 16.07651873 0 16 C-1.70754834 13.02534237 -2.27317355 10.86139168 -2.25 7.4375 C-2.25773438 6.29087891 -2.25773438 6.29087891 -2.265625 5.12109375 C-2 3 -2 3 0 0 Z " fill="#7F29BA" transform="translate(173,105)"/>
<path d="M0 0 C2.75 0.8125 2.75 0.8125 6 3 C7.2870714 5.68883233 8.18254843 8.35858519 9.04296875 11.2109375 C10.03442445 14.10032267 11.3477102 16.44011439 13 19 C11.68 18.67 10.36 18.34 9 18 C9 22.62 9 27.24 9 32 C8.67 32 8.34 32 8 32 C7.96261719 30.89140625 7.92523438 29.7828125 7.88671875 28.640625 C7.82104552 27.17705026 7.75459865 25.71351009 7.6875 24.25 C7.66494141 23.52039063 7.64238281 22.79078125 7.61914062 22.0390625 C7.39949863 17.64622254 6.8069952 15.3333068 4 12 C3.48828125 9.640625 3.48828125 9.640625 3.3125 7.25 C3.24675781 6.45078125 3.18101563 5.6515625 3.11328125 4.828125 C3.07589844 4.22484375 3.03851563 3.6215625 3 3 C1.68 2.67 0.36 2.34 -1 2 C-0.67 1.34 -0.34 0.68 0 0 Z " fill="#2A0C49" transform="translate(117,178)"/>
<path d="M0 0 C2 2 2 2 2.9375 5.5 C3.6673234 9.23685745 3.6673234 9.23685745 7 11 C8.155 11.144375 9.31 11.28875 10.5 11.4375 C13.96506278 11.99438509 14.9762972 12.26204915 17 15 C10.375 15.25 10.375 15.25 7 13 C7 13.99 7 14.98 7 16 C6.34 16 5.68 16 5 16 C4.67 16.66 4.34 17.32 4 18 C0.0252557 11.95147606 -0.11933087 7.04052137 0 0 Z " fill="#9E6DE2" transform="translate(191,218)"/>
<path d="M0 0 C1.65 0 3.3 0 5 0 C5.33 3.96 5.66 7.92 6 12 C4.35 12.33 2.7 12.66 1 13 C-0.32229189 10.35541621 -0.09677194 8.32238699 -0.0625 5.375 C-0.05347656 4.37210938 -0.04445313 3.36921875 -0.03515625 2.3359375 C-0.02355469 1.56507813 -0.01195313 0.79421875 0 0 Z " fill="#AC81EB" transform="translate(115,181)"/>
<path d="M0 0 C2.55694972 3.83542457 2.04045639 5.65902533 1.625 10.1875 C1.51414063 11.45980469 1.40328125 12.73210937 1.2890625 14.04296875 C1.19367188 15.01878906 1.09828125 15.99460937 1 17 C1.69867188 16.9278125 2.39734375 16.855625 3.1171875 16.78125 C4.02726563 16.6884375 4.93734375 16.595625 5.875 16.5 C6.77992188 16.4071875 7.68484375 16.314375 8.6171875 16.21875 C11 16 11 16 13 16 C13.99 15.67 14.98 15.34 16 15 C15.67 16.65 15.34 18.3 15 20 C15.66 20 16.32 20 17 20 C17 20.66 17 21.32 17 22 C8.585 20.02 8.585 20.02 0 18 C0 12.06 0 6.12 0 0 Z " fill="#26001E" transform="translate(189,66)"/>
<path d="M0 0 C1.32 0 2.64 0 4 0 C4 0.99 4 1.98 4 3 C5.32 3 6.64 3 8 3 C8 4.98 8 6.96 8 9 C7.67 8.01 7.34 7.02 7 6 C6.01 6.495 6.01 6.495 5 7 C-1.29017161 7.5824233 -1.29017161 7.5824233 -4.4375 5 C-4.953125 4.34 -5.46875 3.68 -6 3 C-4.02 2.67 -2.04 2.34 0 2 C0 1.34 0 0.68 0 0 Z " fill="#AB7DF1" transform="translate(126,215)"/>
<path d="M0 0 C0.33 0 0.66 0 1 0 C1.06058594 0.62648437 1.12117188 1.25296875 1.18359375 1.8984375 C1.26738281 2.71570313 1.35117188 3.53296875 1.4375 4.375 C1.51871094 5.18710938 1.59992188 5.99921875 1.68359375 6.8359375 C1.89090114 9.04272805 1.89090114 9.04272805 3 11 C6.36591866 9.55746343 8.51047079 7.66735273 11 5 C10.34 8.3 9.68 11.6 9 15 C8.34 15 7.68 15 7 15 C6.67 15.66 6.34 16.32 6 17 C5.34 16.67 4.68 16.34 4 16 C4 15.34 4 14.68 4 14 C3.01 14 2.02 14 1 14 C-1.20808081 8.80451575 -0.93402724 5.41735797 0 0 Z " fill="#AA7EE7" transform="translate(124,201)"/>
<path d="M0 0 C0.8353125 1.1446875 0.8353125 1.1446875 1.6875 2.3125 C6.02442031 7.35270469 9.7901314 8.35284943 16.20703125 8.88671875 C16.79871094 8.92410156 17.39039062 8.96148437 18 9 C18.33 11.64 18.66 14.28 19 17 C18.34 16.34 17.68 15.68 17 15 C17 13.35 17 11.7 17 10 C13.04 10.66 9.08 11.32 5 12 C5.33 11.01 5.66 10.02 6 9 C5.195625 8.690625 4.39125 8.38125 3.5625 8.0625 C1 7 1 7 0 6 C-0.04080783 4.00041636 -0.04254356 1.99954746 0 0 Z " fill="#29113D" transform="translate(97,195)"/>
<path d="M0 0 C4.25 5.66666667 4.25 5.66666667 4 10 C0.97684022 13.97017369 -2.21869007 17.40623002 -7 19 C-7 18.01 -7 17.02 -7 16 C-6.34 16 -5.68 16 -5 16 C-5 14.68 -5 13.36 -5 12 C-3.02 11.34 -1.04 10.68 1 10 C0.67 6.7 0.34 3.4 0 0 Z " fill="#AA7EE6" transform="translate(207,255)"/>
<path d="M0 0 C0.99 0.33 1.98 0.66 3 1 C2.50886719 1.35707031 2.01773438 1.71414062 1.51171875 2.08203125 C-0.71372806 4.90553095 -0.29250922 7.15218954 -0.1875 10.6875 C-0.16042969 11.86699219 -0.13335937 13.04648438 -0.10546875 14.26171875 C-0.07066406 15.16535156 -0.03585938 16.06898438 0 17 C-0.99 16.67 -1.98 16.34 -3 16 C-3.33 15.34 -3.66 14.68 -4 14 C-6.01669827 12.86649466 -6.01669827 12.86649466 -8 12 C-8 11.01 -8 10.02 -8 9 C-7.401875 8.79375 -6.80375 8.5875 -6.1875 8.375 C-3.18806001 6.48963772 -2.42099863 4.18033026 -1 1 C-0.67 0.67 -0.34 0.34 0 0 Z " fill="#A570F7" transform="translate(219,195)"/>
<path d="M0 0 C0 0.99 0 1.98 0 3 C-5.41168418 8.25706463 -10.59230788 8.15232057 -17.8125 8.0625 C-18.50537109 8.05798828 -19.19824219 8.05347656 -19.91210938 8.04882812 C-21.60811068 8.03713156 -23.30406703 8.01919924 -25 8 C-25 7.67 -25 7.34 -25 7 C-24.11699219 6.91363281 -23.23398438 6.82726562 -22.32421875 6.73828125 C-14.04819418 5.76933745 -7.35058737 3.93031406 0 0 Z " fill="#230C3A" transform="translate(193,278)"/>
<path d="M0 0 C2.38663621 2.38663621 2.20656474 2.94811118 2.3125 6.1875 C2.84194632 12.2663281 5.72414408 15.72414408 10 20 C8.1875 20.6875 8.1875 20.6875 6 21 C2.68695815 18.60388357 1.91389278 15.42068017 0.75 11.625 C0.39421875 10.50351562 0.0384375 9.38203125 -0.328125 8.2265625 C-0.99790982 5.01003771 -0.91094437 3.11823265 0 0 Z " fill="#A27DD5" transform="translate(136,261)"/>
<path d="M0 0 C0.33 0 0.66 0 1 0 C1 2.97 1 5.94 1 9 C-2.63 9 -6.26 9 -10 9 C-10.33 8.01 -10.66 7.02 -11 6 C-12.98 6 -14.96 6 -17 6 C-17 5.67 -17 5.34 -17 5 C-15.35 5 -13.7 5 -12 5 C-11.67 4.34 -11.34 3.68 -11 3 C-11 3.66 -11 4.32 -11 5 C-8.03 5.33 -5.06 5.66 -2 6 C-1.855625 5.195625 -1.71125 4.39125 -1.5625 3.5625 C-1 1 -1 1 0 0 Z " fill="#2A123F" transform="translate(114,182)"/>
<path d="M0 0 C1.32 0 2.64 0 4 0 C4.33 0.99 4.66 1.98 5 3 C7.50447516 4.21869929 7.50447516 4.21869929 10 5 C10 6.32 10 7.64 10 9 C5.88654141 8.53256152 2.88860945 8.11081018 0 5 C-0.25 2.3125 -0.25 2.3125 0 0 Z " fill="#5C2E9C" transform="translate(178,181)"/>
<path d="M0 0 C2.31 0 4.62 0 7 0 C6.814375 0.61875 6.62875 1.2375 6.4375 1.875 C5.76313824 4.04160178 5.76313824 4.04160178 7 6 C6.34 6 5.68 6 5 6 C4.34 7.32 3.68 8.64 3 10 C-1.06153846 4.58461538 -1.06153846 4.58461538 -0.75 1.625 C-0.5025 1.08875 -0.255 0.5525 0 0 Z " fill="#AF83F8" transform="translate(96,188)"/>
<path d="M0 0 C0.66 0.33 1.32 0.66 2 1 C2 1.99 2 2.98 2 4 C0.9275 4.12375 -0.145 4.2475 -1.25 4.375 C-4.37863615 4.89643936 -6.33480424 5.40088254 -9 7 C-9.33 5.68 -9.66 4.36 -10 3 C-6.68587278 -0.05919435 -4.45155852 -0.38709205 0 0 Z " fill="#5A2D99" transform="translate(163,173)"/>
<path d="M0 0 C1.31097656 0.01353516 1.31097656 0.01353516 2.6484375 0.02734375 C3.62683594 0.04474609 3.62683594 0.04474609 4.625 0.0625 C4.625 0.3925 4.625 0.7225 4.625 1.0625 C-1.81 1.5575 -1.81 1.5575 -8.375 2.0625 C-8.375 6.3525 -8.375 10.6425 -8.375 15.0625 C-9.365 15.0625 -10.355 15.0625 -11.375 15.0625 C-11.375 10.4425 -11.375 5.8225 -11.375 1.0625 C-7.26241141 0.37706857 -4.05237862 -0.05476187 0 0 Z " fill="#2F031D" transform="translate(179.375,65.9375)"/>
<path d="M0 0 C7.36002867 0.85891683 11.86363079 2.59150527 17 8 C16.01 8.495 16.01 8.495 15 9 C13.9790625 8.38125 13.9790625 8.38125 12.9375 7.75 C9.66525378 5.80057672 6.54046454 4.85893716 2.890625 3.84375 C2.26671875 3.5653125 1.6428125 3.286875 1 3 C0.67 2.01 0.34 1.02 0 0 Z " fill="#5927A4" transform="translate(232,119)"/>
<path d="M0 0 C2.475 0.495 2.475 0.495 5 1 C5 1.66 5 2.32 5 3 C5.66 3 6.32 3 7 3 C9.21747812 5.30276574 9.96760006 6.52480092 10.1875 9.75 C10.125625 10.4925 10.06375 11.235 10 12 C10.66 12 11.32 12 12 12 C12 14.31 12 16.62 12 19 C11.67 19 11.34 19 11 19 C10.6596875 17.7625 10.6596875 17.7625 10.3125 16.5 C7.98231454 10.2861721 4.26777621 5.05810514 0 0 Z " fill="#1D023B" transform="translate(247,125)"/>
<path d="M0 0 C1.258125 -0.04125 2.51625 -0.0825 3.8125 -0.125 C4.52019531 -0.14820312 5.22789062 -0.17140625 5.95703125 -0.1953125 C8 0 8 0 11 2 C11.1875 4.625 11.1875 4.625 11 7 C9.35 7 7.7 7 6 7 C6 5.68 6 4.36 6 3 C5.195625 2.87625 4.39125 2.7525 3.5625 2.625 C2.716875 2.41875 1.87125 2.2125 1 2 C0.67 1.34 0.34 0.68 0 0 Z " fill="#E76299" transform="translate(176,107)"/>
<path d="M0 0 C0.33 0.66 0.66 1.32 1 2 C-1.21040595 5.49011466 -2.96549451 6.99137363 -7 8 C-10.6875 7.875 -10.6875 7.875 -14 7 C-15.4375 4.9375 -15.4375 4.9375 -16 3 C-15.01 3.33 -14.02 3.66 -13 4 C-7.28282089 4.53935652 -4.51215565 3.52168246 0 0 Z " fill="#9567D7" transform="translate(183,207)"/>
<path d="M0 0 C0.33 0.66 0.66 1.32 1 2 C0.67 2.99 0.34 3.98 0 5 C-0.68471947 12.17638671 0.59071263 18.25973177 3 25 C0.5625 24.12890625 0.5625 24.12890625 -2 22 C-2.88350178 18.670536 -2.92786373 15.36878172 -3 11.9375 C-3.05027344 11.01388672 -3.10054688 10.09027344 -3.15234375 9.13867188 C-3.33738457 4.07225419 -3.33738457 4.07225419 -3 2 C-2.01 1.34 -1.02 0.68 0 0 Z " fill="#1F033E" transform="translate(108,147)"/>
<path d="M0 0 C4.00819603 0.47155247 5.53816544 1.33605741 8.1875 4.375 C8.72976552 8.79059065 8.67586965 10.64244552 6.1875 14.375 C5.5275 14.375 4.8675 14.375 4.1875 14.375 C4.8475 11.075 5.5075 7.775 6.1875 4.375 C2.5575 3.715 -1.0725 3.055 -4.8125 2.375 C-2.8125 0.375 -2.8125 0.375 0 0 Z " fill="#C95FC1" transform="translate(180.8125,104.625)"/>
<path d="M0 0 C0.33 0.99 0.66 1.98 1 3 C-1.33333333 5.33333333 -3.66666667 7.66666667 -6 10 C-8.33333333 10 -10.66666667 10 -13 10 C-13.66 10.66 -14.32 11.32 -15 12 C-17.125 11.625 -17.125 11.625 -19 11 C-15.84667218 8.76215445 -13.25605238 7.79574221 -9.5 7.1875 C-5.95220733 6.50637119 -4.24168822 5.67810077 -1.9375 2.875 C-1.298125 1.92625 -0.65875 0.9775 0 0 Z " fill="#522296" transform="translate(153,98)"/>
<path d="M0 0 C0.33 0 0.66 0 1 0 C1.33 3.63 1.66 7.26 2 11 C6.62 11 11.24 11 16 11 C16 11.33 16 11.66 16 12 C13.35409986 12.02684679 10.70846904 12.04676357 8.0625 12.0625 C6.93038086 12.07506836 6.93038086 12.07506836 5.77539062 12.08789062 C3.85005687 12.09652441 1.92464419 12.05224333 0 12 C-1 11 -1 11 -1.1328125 8.75 C-1.13023437 7.8425 -1.12765625 6.935 -1.125 6 C-1.12757813 5.0925 -1.13015625 4.185 -1.1328125 3.25 C-1 1 -1 1 0 0 Z " fill="#822CBE" transform="translate(171,89)"/>
<path d="M0 0 C1.67542976 0.28604898 3.34385343 0.61781233 5 1 C5 2.65 5 4.3 5 6 C2.625 6.625 2.625 6.625 0 7 C-0.66 6.34 -1.32 5.68 -2 5 C-1.46428571 1.46428571 -1.46428571 1.46428571 0 0 Z " fill="#592D75" transform="translate(170,197)"/>
<path d="M0 0 C1.2065625 1.2375 1.2065625 1.2375 2.4375 2.5 C5.92918765 5.47253985 8.79502351 5.43263066 13.2421875 5.17578125 C14.11230469 5.08876953 14.11230469 5.08876953 15 5 C15 7.31 15 9.62 15 12 C14.67 10.68 14.34 9.36 14 8 C13.40832031 8.04640625 12.81664062 8.0928125 12.20703125 8.140625 C8.0398584 8.33096895 5.63533417 8.3630481 1.9375 6.25 C0 4 0 4 0 0 Z " fill="#1F0736" transform="translate(118,216)"/>
<path d="M0 0 C2.475 0.99 2.475 0.99 5 2 C5 3.32 5 4.64 5 6 C4.01 6 3.02 6 2 6 C1.34 7.32 0.68 8.64 0 10 C-0.28875 9.38125 -0.5775 8.7625 -0.875 8.125 C-1.93720042 5.86674235 -1.93720042 5.86674235 -4 4 C-2.68 3.67 -1.36 3.34 0 3 C0 2.01 0 1.02 0 0 Z " fill="#AB7DF5" transform="translate(234,208)"/>
<path d="M0 0 C0.59167969 0.08378906 1.18335938 0.16757813 1.79296875 0.25390625 C6.09939457 0.80889424 9.75552644 1.23226652 14 0 C14 0.99 14 1.98 14 3 C10.5970516 5.09412209 7.96378615 5.57805215 4 5 C1.625 2.5 1.625 2.5 0 0 Z " fill="#996CDF" transform="translate(152,207)"/>
<path d="M0 0 C0.99 0 1.98 0 3 0 C3 0.66 3 1.32 3 2 C3.99 2 4.98 2 6 2 C5.67 2.99 5.34 3.98 5 5 C7.475 5.99 7.475 5.99 10 7 C10 7.33 10 7.66 10 8 C3.59181818 8.36272727 3.59181818 8.36272727 1.0625 6.8125 C-0.32851983 4.43958382 -0.21917317 2.70313576 0 0 Z " fill="#E5629C" transform="translate(173,110)"/>
<path d="M0 0 C1.65 0 3.3 0 5 0 C3 3 3 3 1.01171875 3.625 C0.24472656 3.74875 -0.52226562 3.8725 -1.3125 4 C-5.11025627 4.72047466 -7.7556354 5.83709027 -11 8 C-11.66 8 -12.32 8 -13 8 C-13 7.01 -13 6.02 -13 5 C-11.35 5 -9.7 5 -8 5 C-8 4.34 -8 3.68 -8 3 C-5.29120665 1.64560332 -2.99066732 1.93498549 0 2 C0 1.34 0 0.68 0 0 Z " fill="#1C0138" transform="translate(145,102)"/>
<path d="M0 0 C0 4.62 0 9.24 0 14 C-0.33 14 -0.66 14 -1 14 C-1.33 10.7 -1.66 7.4 -2 4 C-5.63 3.34 -9.26 2.68 -13 2 C-13 1.67 -13 1.34 -13 1 C-8.54459632 0.39587747 -4.52021205 0 0 0 Z " fill="#B95A8A" transform="translate(189,66)"/>
<path d="M0 0 C3 1 3 1 4.16796875 2.84765625 C4.50441406 3.57855469 4.84085938 4.30945313 5.1875 5.0625 C5.53167969 5.79597656 5.87585938 6.52945312 6.23046875 7.28515625 C6.48441406 7.85105469 6.73835937 8.41695313 7 9 C6.34 9 5.68 9 5 9 C5 9.66 5 10.32 5 11 C3.03852126 12.38938077 1.03833424 13.7260411 -1 15 C-1.66 14.67 -2.32 14.34 -3 14 C-2.154375 13.29875 -1.30875 12.5975 -0.4375 11.875 C2.36219265 9.23011469 2.36219265 9.23011469 1.875 5.875 C1.2764738 3.90841391 0.65005342 1.95016025 0 0 Z " fill="#230A3B" transform="translate(208,256)"/>
<path d="M0 0 C1.67542976 0.28604898 3.34385343 0.61781233 5 1 C5 2.65 5 4.3 5 6 C3.34385343 6.38218767 1.67542976 6.71395102 0 7 C-1 6 -1 6 -1.125 3.5 C-1 1 -1 1 0 0 Z " fill="#522970" transform="translate(160,195)"/>
<path d="M0 0 C0.99 0 1.98 0 3 0 C3.98929461 1.86967605 4.96600469 3.74601378 5.9375 5.625 C6.48277344 6.66914062 7.02804688 7.71328125 7.58984375 8.7890625 C8.96669717 11.92416918 9.59842216 14.61454632 10 18 C9.34 18 8.68 18 8 18 C7.608125 16.845 7.21625 15.69 6.8125 14.5 C5.34091398 10.52388779 3.35503627 7.16881477 0.98828125 3.6640625 C0 2 0 2 0 0 Z " fill="#1D013D" transform="translate(224,101)"/>
<path d="M0 0 C3.96 0 7.92 0 12 0 C12 0.66 12 1.32 12 2 C11.34 2 10.68 2 10 2 C10 2.66 10 3.32 10 4 C7.03 4 4.06 4 1 4 C1.99 3.67 2.98 3.34 4 3 C4 2.34 4 1.68 4 1 C2.68 0.67 1.36 0.34 0 0 Z " fill="#6F21BD" transform="translate(174,101)"/>
<path d="M0 0 C1.32 0.66 2.64 1.32 4 2 C3.125 7.75 3.125 7.75 2 10 C1.34 10 0.68 10 0 10 C-1.125 3.375 -1.125 3.375 0 0 Z " fill="#10010B" transform="translate(127,199)"/>
<path d="M0 0 C0.33 0 0.66 0 1 0 C1.33 3.3 1.66 6.6 2 10 C2.66 10 3.32 10 4 10 C4.33 11.98 4.66 13.96 5 16 C2.0222241 13.50003341 1.05451517 10.95288929 -0.1875 7.3125 C-0.53167969 6.31863281 -0.87585938 5.32476562 -1.23046875 4.30078125 C-1.48441406 3.54152344 -1.73835938 2.78226563 -2 2 C-1.34 1.34 -0.68 0.68 0 0 Z " fill="#5D2AAB" transform="translate(124,179)"/>
<path d="M0 0 C0.66 2.31 1.32 4.62 2 7 C0.35 7.33 -1.3 7.66 -3 8 C-3.33 5.69 -3.66 3.38 -4 1 C-2 0 -2 0 0 0 Z " fill="#B080FC" transform="translate(119,186)"/>
<path d="M0 0 C0.66 0 1.32 0 2 0 C1.67 1.65 1.34 3.3 1 5 C1.66 5 2.32 5 3 5 C3 5.66 3 6.32 3 7 C-2.94 5.515 -2.94 5.515 -9 4 C-9 3.67 -9 3.34 -9 3 C-7.35 3 -5.7 3 -4 3 C-3.67 2.34 -3.34 1.68 -3 1 C-2.34 1 -1.68 1 -1 1 C-0.67 0.67 -0.34 0.34 0 0 Z " fill="#1F0533" transform="translate(203,81)"/>
<path d="M0 0 C3.3 0.66 6.6 1.32 10 2 C5.85035583 5.11223313 3.99162787 5.52003578 -1 6 C-0.67 4.02 -0.34 2.04 0 0 Z " fill="#9F6EF3" transform="translate(222,207)"/>
<path d="M0 0 C3.87143588 3.31837361 6.25407823 7.24514923 8 12 C8 13.32 8 14.64 8 16 C7.34 16 6.68 16 6 16 C5.18667257 13.89615302 4.37436583 11.79191143 3.5625 9.6875 C3.11003906 8.51574219 2.65757812 7.34398438 2.19140625 6.13671875 C1.42015245 4.10617185 0.68687358 2.06062074 0 0 Z " fill="#5B28A4" transform="translate(224,103)"/>
<path d="M0 0 C0.33 0 0.66 0 1 0 C1 2.97 1 5.94 1 9 C-4.41538462 12.07692308 -4.41538462 12.07692308 -7.375 11.6875 C-7.91125 11.460625 -8.4475 11.23375 -9 11 C-2.25 7 -2.25 7 0 7 C0 4.69 0 2.38 0 0 Z " fill="#592489" transform="translate(171,80)"/>
<path d="M0 0 C1.98 0.99 1.98 0.99 4 2 C4 3.32 4 4.64 4 6 C4.66 6 5.32 6 6 6 C6 5.34 6 4.68 6 4 C6.99 3.67 7.98 3.34 9 3 C9.66 3.66 10.32 4.32 11 5 C10.360625 5.268125 9.72125 5.53625 9.0625 5.8125 C6.66868314 6.88667752 6.66868314 6.88667752 6 10 C5.01 9.67 4.02 9.34 3 9 C1.875 6.125 1.875 6.125 1 3 C0.67 2.01 0.34 1.02 0 0 Z " fill="#EFDEF4" transform="translate(162,192)"/>
<path d="M0 0 C3.875 4.75 3.875 4.75 5 7 C3.68 6.67 2.36 6.34 1 6 C1 10.62 1 15.24 1 20 C0.67 20 0.34 20 0 20 C-0.1946838 17.22949974 -0.38102792 14.45886998 -0.5625 11.6875 C-0.61857422 10.90181641 -0.67464844 10.11613281 -0.73242188 9.30664062 C-0.78076172 8.54931641 -0.82910156 7.79199219 -0.87890625 7.01171875 C-0.9260376 6.31522217 -0.97316895 5.61872559 -1.02172852 4.90112305 C-1 3 -1 3 0 0 Z " fill="#37195A" transform="translate(125,190)"/>
<path d="M0 0 C0.66666667 1.33333333 1.33333333 2.66666667 2 4 C2.350625 4.556875 2.70125 5.11375 3.0625 5.6875 C4.37763176 8.93149169 4.18951849 11.76600143 4.125 15.25 C4.10695312 16.51328125 4.08890625 17.7765625 4.0703125 19.078125 C4.04710937 20.04234375 4.02390625 21.0065625 4 22 C3.67 22 3.34 22 3 22 C2.96261719 21.19175781 2.92523438 20.38351563 2.88671875 19.55078125 C2.82097656 18.48214844 2.75523437 17.41351563 2.6875 16.3125 C2.62949219 15.25675781 2.57148438 14.20101562 2.51171875 13.11328125 C1.95971327 9.75489678 0.79373527 7.84657988 -1 5 C-0.6875 2.1875 -0.6875 2.1875 0 0 Z " fill="#532194" transform="translate(251,170)"/>
<path d="M0 0 C0.66 0.33 1.32 0.66 2 1 C1.34 1.66 0.68 2.32 0 3 C-0.64767793 5.57061311 -0.64767793 5.57061311 -1 8 C-0.01 8.33 0.98 8.66 2 9 C2.33 9.66 2.66 10.32 3 11 C4.89533342 11.46523063 4.89533342 11.46523063 7.0625 11.625 C8.361875 11.74875 9.66125 11.8725 11 12 C11 12.33 11 12.66 11 13 C3.00819672 13.6147541 3.00819672 13.6147541 -0.5625 11.4375 C-2.51868776 8.12048598 -2.42037462 5.78337161 -2 2 C-1.34 1.34 -0.68 0.68 0 0 Z " fill="#C95FC2" transform="translate(174,107)"/>
<path d="M0 0 C6.41868512 -0.3633218 6.41868512 -0.3633218 9 1.25 C10 3 10 3 9.6875 5.1875 C9.3471875 6.0846875 9.3471875 6.0846875 9 7 C8.2575 6.401875 7.515 5.80375 6.75 5.1875 C4.52582236 3.41826778 2.28337765 1.69139085 0 0 Z " fill="#5F279D" transform="translate(167,230)"/>
<path d="M0 0 C1.32 0 2.64 0 4 0 C4.33 0.66 4.66 1.32 5 2 C8.02934491 2.65772428 8.02934491 2.65772428 11 3 C10.67 4.32 10.34 5.64 10 7 C9.67 6.34 9.34 5.68 9 5 C7.865625 4.690625 6.73125 4.38125 5.5625 4.0625 C2 3 2 3 0 0 Z M11 1 C11.99 1.33 12.98 1.66 14 2 C14 2.66 14 3.32 14 4 C13.01 3.67 12.02 3.34 11 3 C11 2.34 11 1.68 11 1 Z " fill="#150121" transform="translate(242,121)"/>
<path d="M0 0 C2.1640625 0.0234375 2.1640625 0.0234375 4.625 0.375 C5.85089844 0.54128906 5.85089844 0.54128906 7.1015625 0.7109375 C7.72804688 0.80632812 8.35453125 0.90171875 9 1 C7.02 1.99 7.02 1.99 5 3 C5.33 3.66 5.66 4.32 6 5 C5.01 5.33 4.02 5.66 3 6 C0.3125 4.0625 0.3125 4.0625 -2 2 C-1.34 1.34 -0.68 0.68 0 0 Z " fill="#966AD3" transform="translate(103,190)"/>
<path d="M0 0 C0.33 0.66 0.66 1.32 1 2 C1.66 2 2.32 2 3 2 C3 5.96 3 9.92 3 14 C2.67 14 2.34 14 2 14 C1.87625 12.865625 1.7525 11.73125 1.625 10.5625 C1.41875 9.386875 1.2125 8.21125 1 7 C0.34 6.67 -0.32 6.34 -1 6 C-0.67 4.02 -0.34 2.04 0 0 Z " fill="#D95DB1" transform="translate(185,82)"/>
<path d="M0 0 C1.32 0.33 2.64 0.66 4 1 C3.01 1.495 3.01 1.495 2 2 C2.33 3.65 2.66 5.3 3 7 C1.02 6.34 -0.96 5.68 -3 5 C-2.01 3.35 -1.02 1.7 0 0 Z " fill="#1C0929" transform="translate(236,214)"/>
<path d="M0 0 C1.32 1.65 2.64 3.3 4 5 C1.70370006 6.14814997 -0.07698086 6.30769809 -2.625 6.5625 C-3.85089844 6.68818359 -3.85089844 6.68818359 -5.1015625 6.81640625 C-6.04128906 6.90728516 -6.04128906 6.90728516 -7 7 C-5.1875 5 -5.1875 5 -3 3 C-2.01 3 -1.02 3 0 3 C0 2.01 0 1.02 0 0 Z " fill="#9669E2" transform="translate(121,190)"/>
<path d="M0 0 C0.33 1.32 0.66 2.64 1 4 C-0.49739583 5.23697917 -1.99479167 6.47395833 -3.4921875 7.7109375 C-4.71051161 8.75250992 -5.86660097 9.86660097 -7 11 C-7 9.35 -7 7.7 -7 6 C-5.68 5.67 -4.36 5.34 -3 5 C-3 4.34 -3 3.68 -3 3 C-1.5 1.375 -1.5 1.375 0 0 Z " fill="#1B013C" transform="translate(118,133)"/>
<path d="M0 0 C5.452999 1.56818272 9.76486783 3.03810217 14 7 C11.69 6.67 9.38 6.34 7 6 C7 5.01 7 4.02 7 3 C4.69 2.67 2.38 2.34 0 2 C0 1.34 0 0.68 0 0 Z " fill="#5C29B1" transform="translate(200,86)"/>
<path d="M0 0 C3.36720387 1.39332574 4.9859524 2.9789286 7 6 C5.1875 6.6875 5.1875 6.6875 3 7 C1.25 5.8125 1.25 5.8125 0 4 C0 2.68 0 1.36 0 0 Z " fill="#AA80E5" transform="translate(139,275)"/>
<path d="M0 0 C2.92509086 3.90012114 3.47535095 5.38308839 4 10 C3.01 10 2.02 10 1 10 C0.67 6.7 0.34 3.4 0 0 Z " fill="#9F7AD5" transform="translate(207,255)"/>
<path d="M0 0 C0.33 0 0.66 0 1 0 C1.3125 3.25 1.3125 3.25 1 7 C-1.5 9.4375 -1.5 9.4375 -4 11 C-4.66 10.67 -5.32 10.34 -6 10 C-5.566875 9.649375 -5.13375 9.29875 -4.6875 8.9375 C-2.31641544 6.21514365 -1.3283165 3.35241784 0 0 Z " fill="#21043F" transform="translate(254,192)"/>
<path d="M0 0 C0.66 0 1.32 0 2 0 C2.99 2.31 3.98 4.62 5 7 C2.69 6.34 0.38 5.68 -2 5 C-2 4.01 -2 3.02 -2 2 C-1.34 2 -0.68 2 0 2 C0 1.34 0 0.68 0 0 Z " fill="#1C0929" transform="translate(92,187)"/>
<path d="M0 0 C0.99928333 2.698065 1.03624754 3.88010429 0.1875 6.6875 C-1 9 -1 9 -3 10 C-4.13350534 12.01669827 -4.13350534 12.01669827 -5 14 C-5.61763791 8.90448725 -3.61396258 6.19818233 -1 2 C-0.67 1.34 -0.34 0.68 0 0 Z " fill="#230644" transform="translate(257,160)"/>
<path d="M0 0 C2.31 0 4.62 0 7 0 C7 0.33 7 0.66 7 1 C5.35 1 3.7 1 2 1 C2.33 3.64 2.66 6.28 3 9 C0.9375 6.75 0.9375 6.75 -1 4 C-0.75 1.6875 -0.75 1.6875 0 0 Z " fill="#9673CC" transform="translate(96,188)"/>
<path d="M0 0 C2 3 2 3 4 6 C6.05003955 7.19232613 6.05003955 7.19232613 8 8 C7.67 8.99 7.34 9.98 7 11 C0.42857143 6 0.42857143 6 -1 1 C-0.67 0.67 -0.34 0.34 0 0 Z " fill="#5C28A6" transform="translate(111,168)"/>
<path d="M0 0 C0.99 0 1.98 0 3 0 C3 1.98 3 3.96 3 6 C2.67 5.01 2.34 4.02 2 3 C1.01 3.495 1.01 3.495 0 4 C-2.3329866 4.04022391 -4.66706666 4.04320247 -7 4 C-7 3.67 -7 3.34 -7 3 C-6.21625 2.87625 -5.4325 2.7525 -4.625 2.625 C-1.85942178 2.20882007 -1.85942178 2.20882007 0 0 Z " fill="#8B61BC" transform="translate(131,218)"/>
<path d="M0 0 C0.99 0.33 1.98 0.66 3 1 C3 3.64 3 6.28 3 9 C2.01 8.67 1.02 8.34 0 8 C0.33 6.35 0.66 4.7 1 3 C0.34 2.67 -0.32 2.34 -1 2 C-0.67 1.34 -0.34 0.68 0 0 Z " fill="#A872FA" transform="translate(164,171)"/>
<path d="M0 0 C1.32 0 2.64 0 4 0 C3.67 1.98 3.34 3.96 3 6 C2.01 6 1.02 6 0 6 C0 4.02 0 2.04 0 0 Z " fill="#0D0305" transform="translate(112,132)"/>
<path d="M0 0 C0.33 0.66 0.66 1.32 1 2 C0.319375 2.5878125 0.319375 2.5878125 -0.375 3.1875 C-2.16809237 4.96944965 -2.16809237 4.96944965 -3 7.625 C-3.33 8.40875 -3.66 9.1925 -4 10 C-4.99 10.33 -5.98 10.66 -7 11 C-5.87548273 8.0280615 -4.77706209 5.66559313 -3 3 C-2.34 3 -1.68 3 -1 3 C-0.67 2.01 -0.34 1.02 0 0 Z " fill="#532297" transform="translate(129,112)"/>
<path d="M0 0 C1.29608947 0.93137592 2.58671632 1.8703566 3.875 2.8125 C4.59429687 3.33457031 5.31359375 3.85664062 6.0546875 4.39453125 C8 6 8 6 10 9 C8.35 8.67 6.7 8.34 5 8 C4.67 7.01 4.34 6.02 4 5 C2.67151309 3.99357052 1.33849671 2.99307821 0 2 C0 1.34 0 0.68 0 0 Z " fill="#5C29AF" transform="translate(214,93)"/>
<path d="M0 0 C1.65 0 3.3 0 5 0 C3.6875 2.5 3.6875 2.5 2 5 C1.01 5 0.02 5 -1 5 C-0.67 3.35 -0.34 1.7 0 0 Z " fill="#100202" transform="translate(153,88)"/>
<path d="M0 0 C0.33 0.66 0.66 1.32 1 2 C-1.52956528 5.0916909 -4.22454612 5.90931332 -8 7 C-8 6.34 -8 5.68 -8 5 C-6.25 3.7109375 -6.25 3.7109375 -4 2.375 C-3.2575 1.92898438 -2.515 1.48296875 -1.75 1.0234375 C-1.1725 0.68570312 -0.595 0.34796875 0 0 Z " fill="#1D0832" transform="translate(203,272)"/>
<path d="M0 0 C4.875 1.875 4.875 1.875 6 3 C6.04080783 4.99958364 6.04254356 7.00045254 6 9 C3.59927045 6.11912454 1.52708963 3.43595166 0 0 Z " fill="#5B2BA4" transform="translate(129,195)"/>
<path d="M0 0 C2.475 0.495 2.475 0.495 5 1 C5 1.66 5 2.32 5 3 C3.37373596 4.38232443 1.7074998 5.71937515 0 7 C0 4.69 0 2.38 0 0 Z " fill="#6D31CB" transform="translate(167,177)"/>
<path d="M0 0 C0.33 0.99 0.66 1.98 1 3 C0.01 4.485 0.01 4.485 -1 6 C-3.625 6.1875 -3.625 6.1875 -6 6 C-4 4 -2 2 0 0 Z " fill="#5D29B2" transform="translate(120,135)"/>
<path d="M0 0 C1.32 0.33 2.64 0.66 4 1 C3.01 1 2.02 1 1 1 C0.67 3.31 0.34 5.62 0 8 C-0.99 8 -1.98 8 -3 8 C-1.125 2.25 -1.125 2.25 0 0 Z " fill="#270E3E" transform="translate(217,220)"/>
<path d="M0 0 C0.33 0.66 0.66 1.32 1 2 C3.01669827 3.13350534 3.01669827 3.13350534 5 4 C5 4.66 5 5.32 5 6 C3.68 5.67 2.36 5.34 1 5 C1 4.34 1 3.68 1 3 C-0.98 3 -2.96 3 -5 3 C-5 2.67 -5 2.34 -5 2 C-3.35 2 -1.7 2 0 2 C0 1.34 0 0.68 0 0 Z " fill="#1D0634" transform="translate(102,185)"/>
<path d="M0 0 C1.32 0.33 2.64 0.66 4 1 C4 2.32 4 3.64 4 5 C1.03 4.505 1.03 4.505 -2 4 C-1.34 3.67 -0.68 3.34 0 3 C0 2.01 0 1.02 0 0 Z " fill="#6A3BAD" transform="translate(184,185)"/>
<path d="M0 0 C0.625 1.875 0.625 1.875 1 4 C0.34 4.66 -0.32 5.32 -1 6 C-1.64767793 8.57061311 -1.64767793 8.57061311 -2 11 C-2.33 11 -2.66 11 -3 11 C-3.125 4.375 -3.125 4.375 -2 1 C-1.34 0.67 -0.68 0.34 0 0 Z " fill="#632CB9" transform="translate(253,164)"/>
<path d="M0 0 C1.65 1.32 3.3 2.64 5 4 C4.67 4.99 4.34 5.98 4 7 C2.68 6.34 1.36 5.68 0 5 C0 3.35 0 1.7 0 0 Z " fill="#5E26B1" transform="translate(249,128)"/>
<path d="M0 0 C0.99 0.33 1.98 0.66 3 1 C4.6900877 4.80269732 5.19873962 7.05272168 4 11 C3.32880451 9.5437455 2.66318193 8.08492133 2 6.625 C1.62875 5.81289062 1.2575 5.00078125 0.875 4.1640625 C0 2 0 2 0 0 Z " fill="#230A37" transform="translate(203,244)"/>
<path d="M0 0 C2.5 2.25 2.5 2.25 5 5 C5 6.32 5 7.64 5 9 C4.34 8.67 3.68 8.34 3 8 C3 7.01 3 6.02 3 5 C2.01 4.67 1.02 4.34 0 4 C0 2.68 0 1.36 0 0 Z " fill="#1C0138" transform="translate(111,172)"/>
<path d="M0 0 C-0.66 1.98 -1.32 3.96 -2 6 C-4 3 -4 3 -4 1 C-5.32 0.67 -6.64 0.34 -8 0 C-4.71303767 -0.79953138 -3.28976808 -1.09658936 0 0 Z " fill="#A167F6" transform="translate(203,176)"/>
<path d="M0 0 C0.33 0.66 0.66 1.32 1 2 C-0.25 4 -0.25 4 -2 6 C-3.32 6 -4.64 6 -6 6 C-6 5.34 -6 4.68 -6 4 C-4.03852126 2.61061923 -2.03833424 1.2739589 0 0 Z " fill="#9B73D3" transform="translate(183,207)"/>
<path d="M0 0 C2.97 0 5.94 0 9 0 C8.67 1.98 8.34 3.96 8 6 C7.13375 5.071875 7.13375 5.071875 6.25 4.125 C3.91947007 1.71889788 3.91947007 1.71889788 0 0 Z " fill="#6634BA" transform="translate(232,207)"/>
<path d="M0 0 C0.61875 0.78375 1.2375 1.5675 1.875 2.375 C3.89858661 4.96837647 3.89858661 4.96837647 6 7 C4.33388095 7.042721 2.66617115 7.04063832 1 7 C0 6 0 6 -0.0625 2.9375 C-0.041875 1.968125 -0.02125 0.99875 0 0 Z " fill="#210A2F" transform="translate(97,195)"/>
<path d="M0 0 C0.99 1.32 1.98 2.64 3 4 C1.02 4.99 1.02 4.99 -1 6 C-1.625 4.125 -1.625 4.125 -2 2 C-1.34 1.34 -0.68 0.68 0 0 Z " fill="#6035A1" transform="translate(155,174)"/>
<path d="M0 0 C1.65 0 3.3 0 5 0 C4.01 1.485 4.01 1.485 3 3 C0.8359375 3.29296875 0.8359375 3.29296875 -1.625 3.1875 C-2.44226563 3.16042969 -3.25953125 3.13335937 -4.1015625 3.10546875 C-4.72804687 3.07066406 -5.35453125 3.03585938 -6 3 C-6 2.67 -6 2.34 -6 2 C-4.02 2 -2.04 2 0 2 C0 1.34 0 0.68 0 0 Z " fill="#180028" transform="translate(145,102)"/>
<path d="M0 0 C-2.6465335 2.6465335 -5.56221264 3.59941997 -9 5 C-9 4.01 -9 3.02 -9 2 C-5.86501708 0.14223235 -3.62528568 -0.20140476 0 0 Z " fill="#19002F" transform="translate(171,86)"/>
<path d="M0 0 C1.64826111 2.96687001 2.44271087 5.65626525 3 9 C1.68 8.01 0.36 7.02 -1 6 C-0.67 4.02 -0.34 2.04 0 0 Z " fill="#2B1244" transform="translate(136,269)"/>
<path d="M0 0 C0.33 1.32 0.66 2.64 1 4 C0.01 4 -0.98 4 -2 4 C-2.33 4.99 -2.66 5.98 -3 7 C-3.33 6.01 -3.66 5.02 -4 4 C-2.68 2.68 -1.36 1.36 0 0 Z " fill="#9E79DC" transform="translate(238,210)"/>
<path d="M0 0 C0.66 0.33 1.32 0.66 2 1 C0.37660195 2.70884005 -1.29319053 4.37446717 -3 6 C-3.66 6 -4.32 6 -5 6 C-5 5.01 -5 4.02 -5 3 C-2.625 1.25 -2.625 1.25 0 0 Z " fill="#1A0130" transform="translate(245,205)"/>
<path d="M0 0 C2.475 0.99 2.475 0.99 5 2 C4.67 2.99 4.34 3.98 4 5 C3.01 4.34 2.02 3.68 1 3 C0.67 3.99 0.34 4.98 0 6 C0 4.02 0 2.04 0 0 Z " fill="#170024" transform="translate(126,196)"/>
<path d="M0 0 C0.66 0 1.32 0 2 0 C1.1875 3.4375 1.1875 3.4375 0 7 C-0.99 7.33 -1.98 7.66 -3 8 C-3 7.01 -3 6.02 -3 5 C-2.34 5 -1.68 5 -1 5 C-0.67 3.35 -0.34 1.7 0 0 Z " fill="#5D2BAD" transform="translate(252,192)"/>
</svg>
